<?xml version="1.0" encoding="UTF-8"?>
<svg width="100px" height="79px" viewBox="0 0 100 79" version="1.1" xmlns="http://www.w3.org/2000/svg" xmlns:xlink="http://www.w3.org/1999/xlink">
    <!-- Generator: Sketch 59.1 (86144) - https://sketch.com -->
    <title>logo</title>
    <desc>Created with Sketch.</desc>
    <g id="Page-1" stroke="none" stroke-width="1" fill="none" fill-rule="evenodd">
        <g id="logo" fill="#2B344F" fill-rule="nonzero">
            <path d="M28.4171902,25.3112794 C32.9337734,18.2595218 40.9098983,13.5945351 50.0631165,13.5945351 C59.2339033,13.5945351 67.2246687,18.2796512 71.7375918,25.3544138 L74.8391741,23.4493106 C69.6901228,15.3601703 60.5251922,9.99784393 50.0623845,10 C39.6208054,9.99856284 30.4719794,15.3371653 25.3178039,23.399706 L28.4171902,25.3112794 Z" id="arc_x5F_small_9_" stroke="#2B344F"></path>
            <path d="M87.3230979,37.3597189 C86.2397036,37.1009124 83.6476094,36.6192448 83.6476094,36.6192448 C83.1205527,18.8910012 68.2385208,4.56318705 50.0623845,4.52724171 C31.878928,4.56318705 16.9895759,18.8981902 16.4771596,36.640812 C16.4771596,36.640812 13.9304509,37.1296687 12.8016711,37.4028533 C12.8756054,17.3165951 29.5869633,0.939896375 50.0616525,0.932707307 C70.5231653,0.940615282 87.2206147,17.2885577 87.3230979,37.3597189 L87.3230979,37.3597189 Z" id="arc_x5F_big_9_" stroke="#2B344F"></path>
            <path d="M27.1215091,77.0369085 L22.8464936,77.6983029 C21.4483293,77.9139749 20.2038898,78.029 19.0765741,78.029 C16.9903079,78.021811 15.2707854,77.6767357 14.0109734,76.5473329 C12.6347698,75.1598427 12.1150333,73.0103111 11.5074541,69.5667471 C11.1780436,67.6551737 10.4679811,66.6695524 9.29674397,66.0448223 C8.52006734,65.6350454 7.42935276,65.383428 5.98726703,65.3906171 C5.20473422,65.3906171 4.31825412,65.4625078 3.34466325,65.6134782 L1.89598931,65.8363393 L0.958999605,60.0347608 L2.40840556,59.8047106 C7.40080385,58.9132661 8.95928127,57.3532382 9.01784312,54.6573374 C9.01784312,54.3122621 8.98929422,53.9384305 8.92268011,53.5358426 C8.65183152,51.8607896 8.51274711,50.4517321 8.51274711,49.2727248 C8.52006734,48.0505831 8.62987082,47.0728698 9.10568591,46.1742362 C10.4379682,43.9528139 13.1684147,43.018235 17.150621,42.3568406 L21.4183163,41.6882572 L22.2747835,47.0153572 L18.9147969,47.5401592 C17.6842659,47.7342641 16.7260475,47.9499362 16.0672266,48.1727973 C15.4442749,48.3812803 15.0936358,48.6185196 14.9391789,48.7982463 C14.7781338,48.9851621 14.690291,49.1648888 14.6471016,49.5315313 C14.6390494,49.6537455 14.6317291,49.7903378 14.6317291,49.9341192 C14.6317291,50.3582742 14.6829707,50.8974544 14.786186,51.5300924 C15.0197014,52.9894734 15.1368251,54.2475604 15.1441454,55.3331098 C15.1368251,56.3108232 15.0489824,57.1519442 14.7781338,57.9139855 C14.3096389,59.1936398 13.4392633,60.2863782 12.2087323,61.2569025 C13.871157,61.8967296 15.1873347,62.8384977 16.0672266,64.1540972 L16.0745469,64.1612863 L16.0745469,64.1684754 C16.8797724,65.484075 17.3336268,67.4898252 17.8745919,70.7033389 C17.9778072,71.3647332 18.1242119,71.8543088 18.2632963,72.1339636 C18.3657795,72.3424466 18.4236093,72.3927701 18.5487853,72.4646608 C18.6878697,72.5365515 19.0172802,72.6300094 19.5516571,72.6371984 L19.6387679,72.6371984 C20.1877853,72.6371984 20.9644619,72.5724968 21.9234123,72.4215264 L24.8214922,71.968615 L26.26431,71.745035 L27.1215091,77.0369085 Z" id="left_x5F_brace_9_"></path>
            <path d="M99.2989976,60.04842 L98.36274,65.8571876 L96.9199222,65.6271374 C95.9390111,65.476167 95.0459428,65.4042763 94.262678,65.4042763 C92.8205922,65.4042763 91.7371979,65.6487046 90.9612533,66.0512925 C89.7973364,66.6695524 89.0865418,67.6544548 88.7498112,69.5811253 C88.1502841,72.9808359 87.6151752,75.1454645 86.2170109,76.5329548 C86.2096906,76.5401439 86.2096906,76.5401439 86.2023704,76.5473329 C84.9506107,77.6695466 83.2449966,78.013903 81.1733709,78.029 C80.0533754,78.029 78.808936,77.9139749 77.4107716,77.6983029 L73.1430763,77.0369085 L73.9995435,71.7457539 L77.4107716,72.277745 C78.5007542,72.4502826 79.3945545,72.5221733 80.0460552,72.5221733 L80.1997801,72.5221733 C80.8366403,72.5149843 81.2538935,72.3927701 81.4808207,72.2705559 C81.6931074,72.1483417 81.8468323,72.0045604 82.0225179,71.6451069 C82.2128439,71.2281409 82.4104902,70.5739357 82.5495746,69.7112474 C83.0180694,66.9146997 83.5451261,64.9952183 84.5553182,63.6436734 C85.3964128,62.5725021 86.5757022,61.8032717 88.0543891,61.2569025 C86.663545,60.1425969 85.7119148,58.8485645 85.2939296,57.3244819 L85.2866094,57.3172928 L85.2866094,57.3029147 C85.1768059,56.8428143 85.1402047,56.3755248 85.1402047,55.8363446 C85.1402047,55.4481349 85.1621654,55.0311689 85.1987666,54.5710685 C85.2939296,53.4998973 85.4622949,52.1699196 85.7038626,50.5595681 L85.7038626,50.54519 C85.7770649,50.128224 85.8063458,49.7687706 85.8063458,49.4883969 C85.8063458,49.3446155 85.7990256,49.2152123 85.7843851,49.1145653 C85.747784,48.8917042 85.7045946,48.8054354 85.5940591,48.6832212 C85.4915758,48.5753852 85.212675,48.3812803 84.7009908,48.2159317 C84.1592936,48.036205 83.3540681,47.8564783 82.3219154,47.6911297 L77.9802857,47.0153572 L78.8448051,41.6954463 L83.1125004,42.3568406 C87.042733,43.0110459 89.7665914,43.9528139 91.1061939,46.159858 C91.6039697,47.0872479 91.7210934,48.1080957 91.7350018,49.3805609 C91.7350018,50.5595681 91.5966494,51.9470584 91.332389,53.5861661 C91.266507,54.0031321 91.2299058,54.3769637 91.2299058,54.729228 C91.2445463,56.0088823 91.5959174,56.8571924 92.3206204,57.6120446 C93.2502899,58.5681908 95.0657074,59.4021228 97.8473956,59.8262778 L99.2989976,60.04842 Z" id="right_x5F_brace_9_"></path>
        </g>
    </g>
</svg>